<svg width="30"
     height="30"
     viewBox="0 0 24 24"
     fill="none"
     xmlns="http://www.w3.org/2000/svg"
>
    <path d="M2.00001 10.5C2.00037 8.8809 2.5247 7.30536 3.49463 6.00888C4.46457 4.71241 5.82802 3.76464 7.3812 3.30722C8.93439 2.8498 10.5939 2.9073 12.1117 3.47113C13.6295 4.03495 14.9241 5.07482 15.8019 6.43532C16.6798 7.79581 17.0938 9.40387 16.9821 11.0192C16.8704 12.6344 16.239 14.1702 15.1822 15.3969C14.1254 16.6236 12.7 17.4754 11.119 17.8249C9.53806 18.1744 7.88644 18.0029 6.41101 17.336C5.15301 17.626 3.79801 17.876 3.17501 17.988C3.01579 18.0165 2.85205 18.0057 2.69792 17.9567C2.54379 17.9077 2.40392 17.8219 2.29039 17.7067C2.17687 17.5915 2.09311 17.4504 2.04635 17.2955C1.99958 17.1407 1.99123 16.9768 2.02201 16.818C2.14001 16.208 2.40201 14.9 2.70301 13.675C2.23849 12.6811 1.99847 11.5971 2.00001 10.5ZM9.40001 19C10.7856 20.2882 12.6082 21.0029 14.5 21C15.5652 21.0015 16.6185 20.7751 17.589 20.336C18.849 20.626 20.21 20.876 20.837 20.986C20.9965 21.0142 21.1604 21.003 21.3146 20.9535C21.4688 20.904 21.6086 20.8176 21.7219 20.7019C21.8352 20.5861 21.9186 20.4445 21.9647 20.2893C22.0109 20.134 22.0186 19.9699 21.987 19.811C21.7796 18.7609 21.5495 17.7153 21.297 16.675C21.7417 15.723 21.9814 14.6882 22.0006 13.6376C22.0199 12.5871 21.8183 11.5442 21.4089 10.5765C20.9995 9.60877 20.3914 8.73785 19.6239 8.02012C18.8565 7.3024 17.9469 6.75386 16.954 6.41004C17.6688 7.71202 18.03 9.17858 18.0015 10.6636C17.973 12.1486 17.5559 13.6003 16.7917 14.8739C16.0276 16.1475 14.943 17.1987 13.6461 17.9226C12.3492 18.6466 10.8852 19.018 9.40001 19Z"
          fill="white"/>
</svg>
