<svg width="22px" height="22px" viewBox="0 0 22 22" version="1.1" xmlns="http://www.w3.org/2000/svg">
<path d="M18.9844,11.3004 C18.8254,15.5714 15.3094,18.9994 11.0004,18.9994 C7.8924,18.9994 5.2364,17.1964 3.9154,14.6004 L7.0004,14.6004 L7.0004,13.6004 L3.0004,13.6004 L2.0004,13.6004 L2.0004,14.6004 L2.0004,18.8004 L3.0004,18.8004 L3.0004,15.0944 C4.4904,18.0034 7.5064,19.9994 11.0004,19.9994 C15.8694,19.9994 19.8254,16.1304 19.9844,11.3004 L18.9844,11.3004 Z M20.0004,3.1004 L20.0004,7.3004 L20.0004,8.3004 L19.0004,8.3004 L15.0004,8.3004 L15.0004,7.3004 L18.0334,7.3004 C16.6944,4.7584 14.0664,2.9994 11.0004,2.9994 C6.7234,2.9994 3.2304,6.3754 3.0204,10.6004 L2.0204,10.6004 C2.2314,5.8164 6.1644,1.9994 11.0004,1.9994 C14.5024,1.9994 17.5124,4.0124 19.0004,6.9334 L19.0004,3.1004 L20.0004,3.1004 Z"></path>
</svg>